<svg width="202" height="32" viewBox="0 0 202 32" fill="none" xmlns="http://www.w3.org/2000/svg">
<path d="M31.6883 10.6666H9.31196C8.84314 10.6666 8.46031 11.0582 8.5033 11.5205C8.99464 17.0113 14.1783 21.3333 20.5001 21.3333C26.822 21.3333 32.0056 17.0133 32.497 11.5205C32.5379 11.0582 32.1571 10.6666 31.6883 10.6666Z" fill="#70C05B"/>
<path d="M42.1247 20C42.0447 20 41.9767 19.976 41.9207 19.928C41.8727 19.872 41.8487 19.804 41.8487 19.724V11.888C41.8487 11.8 41.8727 11.732 41.9207 11.684C41.9767 11.628 42.0447 11.6 42.1247 11.6H45.4127C46.2687 11.6 46.9127 11.804 47.3447 12.212C47.7767 12.62 47.9927 13.156 47.9927 13.82C47.9927 14.268 47.8887 14.64 47.6807 14.936C47.4807 15.232 47.2407 15.448 46.9607 15.584C47.2967 15.752 47.5807 16.012 47.8127 16.364C48.0447 16.716 48.1607 17.12 48.1607 17.576C48.1607 18.024 48.0567 18.432 47.8487 18.8C47.6487 19.168 47.3487 19.46 46.9487 19.676C46.5487 19.892 46.0687 20 45.5087 20H42.1247ZM45.2327 15.152C45.7367 15.152 46.1207 15.036 46.3847 14.804C46.6567 14.572 46.7927 14.248 46.7927 13.832C46.7927 13.424 46.6607 13.112 46.3967 12.896C46.1327 12.68 45.7447 12.572 45.2327 12.572H43.0247V15.152H45.2327ZM45.3527 19.028C45.8567 19.028 46.2487 18.892 46.5287 18.62C46.8167 18.348 46.9607 18 46.9607 17.576C46.9607 17.136 46.8167 16.784 46.5287 16.52C46.2487 16.248 45.8567 16.112 45.3527 16.112H43.0247V19.028H45.3527ZM49.9843 20C49.9043 20 49.8363 19.976 49.7803 19.928C49.7323 19.872 49.7083 19.804 49.7083 19.724V14.036C49.7083 13.956 49.7323 13.892 49.7803 13.844C49.8363 13.788 49.9043 13.76 49.9843 13.76H50.5603C50.6403 13.76 50.7043 13.788 50.7523 13.844C50.8083 13.892 50.8363 13.956 50.8363 14.036V15.8H52.0843C52.8763 15.8 53.4643 15.988 53.8483 16.364C54.2403 16.732 54.4363 17.256 54.4363 17.936C54.4363 18.64 54.2283 19.16 53.8123 19.496C53.4043 19.832 52.7803 20 51.9403 20H49.9843ZM55.5643 20C55.4843 20 55.4163 19.976 55.3603 19.928C55.3123 19.872 55.2883 19.804 55.2883 19.724V14.036C55.2883 13.956 55.3123 13.892 55.3603 13.844C55.4163 13.788 55.4843 13.76 55.5643 13.76H56.1403C56.2203 13.76 56.2843 13.788 56.3323 13.844C56.3883 13.892 56.4163 13.956 56.4163 14.036V19.724C56.4163 19.804 56.3883 19.872 56.3323 19.928C56.2843 19.976 56.2203 20 56.1403 20H55.5643ZM51.9763 19.1C52.4723 19.1 52.8283 19.012 53.0443 18.836C53.2683 18.66 53.3803 18.36 53.3803 17.936C53.3803 17.512 53.2683 17.2 53.0443 17C52.8283 16.8 52.4723 16.7 51.9763 16.7H50.8243V19.1H51.9763ZM61.4218 20C61.3418 20 61.2738 19.976 61.2178 19.928C61.1698 19.872 61.1458 19.804 61.1458 19.724V14.036C61.1458 13.956 61.1698 13.892 61.2178 13.844C61.2738 13.788 61.3418 13.76 61.4218 13.76H66.1858C66.2658 13.76 66.3298 13.788 66.3778 13.844C66.4338 13.892 66.4618 13.956 66.4618 14.036V19.724C66.4618 19.804 66.4338 19.872 66.3778 19.928C66.3298 19.976 66.2658 20 66.1858 20H65.6098C65.5298 20 65.4658 19.976 65.4178 19.928C65.3698 19.872 65.3458 19.804 65.3458 19.724V14.72H62.2738V19.724C62.2738 19.804 62.2458 19.872 62.1898 19.928C62.1418 19.976 62.0778 20 61.9978 20H61.4218ZM70.8034 20.12C69.9234 20.12 69.2394 19.872 68.7514 19.376C68.2714 18.88 68.0154 18.22 67.9834 17.396L67.9714 16.88L67.9834 16.364C68.0154 15.548 68.2754 14.892 68.7634 14.396C69.2514 13.892 69.9314 13.64 70.8034 13.64C71.6754 13.64 72.3554 13.892 72.8434 14.396C73.3314 14.892 73.5914 15.548 73.6234 16.364C73.6314 16.452 73.6354 16.624 73.6354 16.88C73.6354 17.136 73.6314 17.308 73.6234 17.396C73.5914 18.22 73.3314 18.88 72.8434 19.376C72.3634 19.872 71.6834 20.12 70.8034 20.12ZM70.8034 19.196C71.3074 19.196 71.7034 19.036 71.9914 18.716C72.2874 18.396 72.4474 17.936 72.4714 17.336C72.4794 17.256 72.4834 17.104 72.4834 16.88C72.4834 16.656 72.4794 16.504 72.4714 16.424C72.4474 15.824 72.2874 15.364 71.9914 15.044C71.7034 14.724 71.3074 14.564 70.8034 14.564C70.2994 14.564 69.8994 14.724 69.6034 15.044C69.3074 15.364 69.1514 15.824 69.1354 16.424L69.1234 16.88L69.1354 17.336C69.1514 17.936 69.3074 18.396 69.6034 18.716C69.8994 19.036 70.2994 19.196 70.8034 19.196ZM74.7325 20C74.6525 20 74.5845 19.972 74.5285 19.916C74.4725 19.86 74.4445 19.792 74.4445 19.712V19.268C74.4445 19.188 74.4685 19.124 74.5165 19.076C74.5645 19.028 74.6245 19.004 74.6965 19.004C75.0805 18.988 75.3645 18.716 75.5485 18.188C75.7405 17.652 75.8365 16.78 75.8365 15.572V14.036C75.8365 13.956 75.8605 13.892 75.9085 13.844C75.9645 13.788 76.0325 13.76 76.1125 13.76H79.9285C80.0085 13.76 80.0725 13.788 80.1205 13.844C80.1765 13.892 80.2045 13.956 80.2045 14.036V19.724C80.2045 19.804 80.1765 19.872 80.1205 19.928C80.0725 19.976 80.0085 20 79.9285 20H79.3525C79.2725 20 79.2085 19.976 79.1605 19.928C79.1125 19.872 79.0885 19.804 79.0885 19.724V14.72H76.9285V15.704C76.9285 17.232 76.7525 18.332 76.4005 19.004C76.0485 19.668 75.4925 20 74.7325 20ZM87.1175 13.76C87.1815 13.76 87.2375 13.784 87.2855 13.832C87.3335 13.88 87.3575 13.936 87.3575 14C87.3575 14.056 87.3375 14.128 87.2975 14.216L85.0175 19.616L84.9095 19.856C84.7015 20.36 84.5095 20.776 84.3335 21.104C84.1575 21.432 83.9375 21.708 83.6735 21.932C83.4095 22.164 83.0975 22.28 82.7375 22.28H82.2815C82.2015 22.28 82.1335 22.256 82.0775 22.208C82.0295 22.16 82.0055 22.092 82.0055 22.004V21.596C82.0055 21.516 82.0295 21.448 82.0775 21.392C82.1335 21.344 82.2015 21.32 82.2815 21.32H82.5935C82.7695 21.32 82.9135 21.284 83.0255 21.212C83.1375 21.148 83.2375 21.036 83.3255 20.876C83.4215 20.716 83.5375 20.472 83.6735 20.144L83.8775 19.652L81.5255 14.216C81.4855 14.112 81.4655 14.044 81.4655 14.012C81.4735 13.94 81.5015 13.88 81.5495 13.832C81.5975 13.784 81.6535 13.76 81.7175 13.76H82.2815C82.4175 13.76 82.5175 13.828 82.5815 13.964L84.4175 18.368L86.2775 13.964C86.3335 13.828 86.4335 13.76 86.5775 13.76H87.1175ZM92.5037 20C92.4237 20 92.3557 19.976 92.2997 19.928C92.2517 19.872 92.2277 19.804 92.2277 19.724V17.468C91.8197 17.852 91.2077 18.044 90.3917 18.044C89.6637 18.044 89.1117 17.884 88.7357 17.564C88.3597 17.244 88.1717 16.744 88.1717 16.064V14.036C88.1717 13.956 88.1957 13.892 88.2437 13.844C88.2997 13.788 88.3677 13.76 88.4477 13.76H89.0357C89.1157 13.76 89.1797 13.788 89.2277 13.844C89.2837 13.892 89.3117 13.956 89.3117 14.036V15.992C89.3117 16.352 89.4157 16.616 89.6237 16.784C89.8317 16.944 90.1597 17.024 90.6077 17.024C91.1277 17.024 91.5277 16.96 91.8077 16.832C92.0877 16.704 92.2277 16.488 92.2277 16.184V14.036C92.2277 13.956 92.2517 13.892 92.2997 13.844C92.3557 13.788 92.4237 13.76 92.5037 13.76H93.1037C93.1837 13.76 93.2477 13.788 93.2957 13.844C93.3517 13.892 93.3797 13.956 93.3797 14.036V19.724C93.3797 19.804 93.3517 19.872 93.2957 19.928C93.2477 19.976 93.1837 20 93.1037 20H92.5037ZM99.6293 13.76C99.7093 13.76 99.7733 13.788 99.8213 13.844C99.8773 13.892 99.9053 13.956 99.9053 14.036V19.724C99.9053 19.804 99.8773 19.872 99.8213 19.928C99.7733 19.976 99.7093 20 99.6293 20H99.0533C98.9733 20 98.9053 19.976 98.8493 19.928C98.8013 19.872 98.7773 19.804 98.7773 19.724V17.768H97.4933L96.1373 19.82C96.1053 19.868 96.0613 19.912 96.0053 19.952C95.9493 19.984 95.8893 20 95.8253 20H95.2493C95.1773 20 95.1173 19.976 95.0693 19.928C95.0213 19.88 94.9973 19.824 94.9973 19.76C94.9973 19.68 95.0253 19.608 95.0813 19.544L96.4253 17.564C96.0093 17.42 95.6973 17.192 95.4893 16.88C95.2813 16.56 95.1773 16.176 95.1773 15.728C95.1773 15.056 95.3733 14.56 95.7653 14.24C96.1653 13.92 96.7653 13.76 97.5653 13.76H99.6293ZM98.7893 14.66H97.5293C97.0733 14.66 96.7413 14.74 96.5333 14.9C96.3253 15.06 96.2213 15.336 96.2213 15.728C96.2213 16.072 96.3213 16.348 96.5213 16.556C96.7293 16.764 97.0333 16.868 97.4333 16.868H98.7893V14.66ZM104.2 20.12C103.376 20.12 102.716 19.868 102.22 19.364C101.732 18.852 101.464 18.156 101.416 17.276L101.404 16.868L101.416 16.472C101.472 15.608 101.744 14.92 102.232 14.408C102.728 13.896 103.38 13.64 104.188 13.64C105.076 13.64 105.764 13.924 106.252 14.492C106.74 15.052 106.984 15.812 106.984 16.772V16.976C106.984 17.056 106.956 17.124 106.9 17.18C106.852 17.228 106.788 17.252 106.708 17.252H102.556V17.36C102.58 17.88 102.736 18.324 103.024 18.692C103.32 19.052 103.708 19.232 104.188 19.232C104.556 19.232 104.856 19.16 105.088 19.016C105.328 18.864 105.504 18.708 105.616 18.548C105.688 18.452 105.74 18.396 105.772 18.38C105.812 18.356 105.88 18.344 105.976 18.344H106.564C106.636 18.344 106.696 18.364 106.744 18.404C106.792 18.444 106.816 18.5 106.816 18.572C106.816 18.748 106.704 18.96 106.48 19.208C106.264 19.456 105.956 19.672 105.556 19.856C105.164 20.032 104.712 20.12 104.2 20.12ZM105.844 16.424V16.388C105.844 15.836 105.692 15.388 105.388 15.044C105.092 14.692 104.692 14.516 104.188 14.516C103.684 14.516 103.284 14.692 102.988 15.044C102.7 15.388 102.556 15.836 102.556 16.388V16.424H105.844ZM110.327 20C110.247 20 110.179 19.976 110.123 19.928C110.075 19.872 110.051 19.804 110.051 19.724V14.72H107.963C107.883 14.72 107.815 14.696 107.759 14.648C107.711 14.592 107.687 14.524 107.687 14.444V14.036C107.687 13.956 107.711 13.892 107.759 13.844C107.815 13.788 107.883 13.76 107.963 13.76H113.243C113.323 13.76 113.387 13.788 113.435 13.844C113.491 13.892 113.519 13.956 113.519 14.036V14.444C113.519 14.524 113.491 14.592 113.435 14.648C113.387 14.696 113.323 14.72 113.243 14.72H111.155V19.724C111.155 19.804 111.131 19.872 111.083 19.928C111.035 19.976 110.971 20 110.891 20H110.327ZM117.056 20.12C116.232 20.12 115.572 19.868 115.076 19.364C114.588 18.852 114.32 18.156 114.272 17.276L114.26 16.868L114.272 16.472C114.328 15.608 114.6 14.92 115.088 14.408C115.584 13.896 116.236 13.64 117.044 13.64C117.932 13.64 118.62 13.924 119.108 14.492C119.596 15.052 119.84 15.812 119.84 16.772V16.976C119.84 17.056 119.812 17.124 119.756 17.18C119.708 17.228 119.644 17.252 119.564 17.252H115.412V17.36C115.436 17.88 115.592 18.324 115.88 18.692C116.176 19.052 116.564 19.232 117.044 19.232C117.412 19.232 117.712 19.16 117.944 19.016C118.184 18.864 118.36 18.708 118.472 18.548C118.544 18.452 118.596 18.396 118.628 18.38C118.668 18.356 118.736 18.344 118.832 18.344H119.42C119.492 18.344 119.552 18.364 119.6 18.404C119.648 18.444 119.672 18.5 119.672 18.572C119.672 18.748 119.56 18.96 119.336 19.208C119.12 19.456 118.812 19.672 118.412 19.856C118.02 20.032 117.568 20.12 117.056 20.12ZM118.7 16.424V16.388C118.7 15.836 118.548 15.388 118.244 15.044C117.948 14.692 117.548 14.516 117.044 14.516C116.54 14.516 116.14 14.692 115.844 15.044C115.556 15.388 115.412 15.836 115.412 16.388V16.424H118.7ZM128.021 20H126.328V13.4727L124.307 14.0996V12.7227L127.84 11.457H128.021V20ZM136.541 16.4727C136.541 17.6523 136.297 18.5547 135.809 19.1797C135.32 19.8047 134.605 20.1172 133.664 20.1172C132.734 20.1172 132.023 19.8105 131.531 19.1973C131.039 18.584 130.787 17.7051 130.775 16.5605V14.9902C130.775 13.7988 131.021 12.8945 131.514 12.2773C132.01 11.6602 132.723 11.3516 133.652 11.3516C134.582 11.3516 135.293 11.6582 135.785 12.2715C136.277 12.8809 136.529 13.7578 136.541 14.9023V16.4727ZM134.848 14.75C134.848 14.043 134.75 13.5293 134.555 13.209C134.363 12.8848 134.062 12.7227 133.652 12.7227C133.254 12.7227 132.959 12.877 132.768 13.1855C132.58 13.4902 132.48 13.9688 132.469 14.6211V16.6953C132.469 17.3906 132.562 17.9082 132.75 18.248C132.941 18.584 133.246 18.752 133.664 18.752C134.078 18.752 134.377 18.5898 134.561 18.2656C134.744 17.9414 134.84 17.4453 134.848 16.7773V14.75ZM143.432 16.4727C143.432 17.6523 143.188 18.5547 142.699 19.1797C142.211 19.8047 141.496 20.1172 140.555 20.1172C139.625 20.1172 138.914 19.8105 138.422 19.1973C137.93 18.584 137.678 17.7051 137.666 16.5605V14.9902C137.666 13.7988 137.912 12.8945 138.404 12.2773C138.9 11.6602 139.613 11.3516 140.543 11.3516C141.473 11.3516 142.184 11.6582 142.676 12.2715C143.168 12.8809 143.42 13.7578 143.432 14.9023V16.4727ZM141.738 14.75C141.738 14.043 141.641 13.5293 141.445 13.209C141.254 12.8848 140.953 12.7227 140.543 12.7227C140.145 12.7227 139.85 12.877 139.658 13.1855C139.471 13.4902 139.371 13.9688 139.359 14.6211V16.6953C139.359 17.3906 139.453 17.9082 139.641 18.248C139.832 18.584 140.137 18.752 140.555 18.752C140.969 18.752 141.268 18.5898 141.451 18.2656C141.635 17.9414 141.73 17.4453 141.738 16.7773V14.75ZM150.785 14.0117C151.598 14.0117 152.246 14.2812 152.73 14.8203C153.215 15.3594 153.457 16.0918 153.457 17.0176V17.0996C153.457 18.0137 153.188 18.7461 152.648 19.2969C152.109 19.8477 151.385 20.123 150.475 20.123C149.561 20.123 148.832 19.8262 148.289 19.2324C147.75 18.6348 147.48 17.8242 147.48 16.8008V16.5195C147.488 15.0938 147.729 13.9785 148.201 13.1738C148.678 12.3652 149.393 11.8555 150.346 11.6445C150.846 11.5352 151.168 11.4277 151.312 11.3223C151.457 11.2129 151.529 11.0625 151.529 10.8711H152.9C152.9 11.4844 152.734 11.9453 152.402 12.2539C152.074 12.5625 151.488 12.8008 150.645 12.9688C150.145 13.0703 149.75 13.2676 149.461 13.5605C149.172 13.8535 148.977 14.2656 148.875 14.7969C149.414 14.2734 150.051 14.0117 150.785 14.0117ZM150.463 15.3828C150.061 15.3828 149.744 15.5176 149.514 15.7871C149.287 16.0566 149.174 16.4941 149.174 17.0996C149.174 17.6387 149.285 18.0508 149.508 18.3359C149.73 18.6172 150.053 18.7578 150.475 18.7578C150.885 18.7578 151.201 18.6191 151.424 18.3418C151.646 18.0645 151.76 17.6562 151.764 17.1172V16.9766C151.764 16.457 151.648 16.0625 151.418 15.793C151.191 15.5195 150.873 15.3828 150.463 15.3828ZM154.207 16.7715C154.207 16.1426 154.328 15.582 154.57 15.0898C154.812 14.5977 155.16 14.2168 155.613 13.9473C156.07 13.6777 156.6 13.543 157.201 13.543C158.057 13.543 158.754 13.8047 159.293 14.3281C159.836 14.8516 160.139 15.5625 160.201 16.4609L160.213 16.8945C160.213 17.8672 159.941 18.6484 159.398 19.2383C158.855 19.8242 158.127 20.1172 157.213 20.1172C156.299 20.1172 155.568 19.8242 155.021 19.2383C154.479 18.6523 154.207 17.8555 154.207 16.8477V16.7715ZM155.9 16.8945C155.9 17.4961 156.014 17.957 156.24 18.2773C156.467 18.5938 156.791 18.752 157.213 18.752C157.623 18.752 157.943 18.5957 158.174 18.2832C158.404 17.9668 158.52 17.4629 158.52 16.7715C158.52 16.1816 158.404 15.7246 158.174 15.4004C157.943 15.0762 157.619 14.9141 157.201 14.9141C156.787 14.9141 156.467 15.0762 156.24 15.4004C156.014 15.7207 155.9 16.2188 155.9 16.8945ZM166.752 20H165.053V17.5625H162.949V20H161.256V13.6602H162.949V16.2031H165.053V13.6602H166.752V20ZM170.432 17.6035L171.604 13.6602H173.42L170.871 20.9844L170.73 21.3184C170.352 22.1465 169.727 22.5605 168.855 22.5605C168.609 22.5605 168.359 22.5234 168.105 22.4492V21.166L168.363 21.1719C168.684 21.1719 168.922 21.123 169.078 21.0254C169.238 20.9277 169.363 20.7656 169.453 20.5391L169.652 20.0176L167.432 13.6602H169.254L170.432 17.6035ZM176.643 18.752C176.955 18.752 177.209 18.666 177.404 18.4941C177.6 18.3223 177.701 18.0938 177.709 17.8086H179.297C179.293 18.2383 179.176 18.6328 178.945 18.9922C178.715 19.3477 178.398 19.625 177.996 19.8242C177.598 20.0195 177.156 20.1172 176.672 20.1172C175.766 20.1172 175.051 19.8301 174.527 19.2559C174.004 18.6777 173.742 17.8809 173.742 16.8652V16.7539C173.742 15.7773 174.002 14.998 174.521 14.416C175.041 13.834 175.754 13.543 176.66 13.543C177.453 13.543 178.088 13.7695 178.564 14.2227C179.045 14.6719 179.289 15.2715 179.297 16.0215H177.709C177.701 15.6934 177.6 15.4277 177.404 15.2246C177.209 15.0176 176.951 14.9141 176.631 14.9141C176.236 14.9141 175.938 15.0586 175.734 15.3477C175.535 15.6328 175.436 16.0977 175.436 16.7422V16.918C175.436 17.5703 175.535 18.0391 175.734 18.3242C175.934 18.6094 176.236 18.752 176.643 18.752ZM180 16.7715C180 16.1426 180.121 15.582 180.363 15.0898C180.605 14.5977 180.953 14.2168 181.406 13.9473C181.863 13.6777 182.393 13.543 182.994 13.543C183.85 13.543 184.547 13.8047 185.086 14.3281C185.629 14.8516 185.932 15.5625 185.994 16.4609L186.006 16.8945C186.006 17.8672 185.734 18.6484 185.191 19.2383C184.648 19.8242 183.92 20.1172 183.006 20.1172C182.092 20.1172 181.361 19.8242 180.814 19.2383C180.271 18.6523 180 17.8555 180 16.8477V16.7715ZM181.693 16.8945C181.693 17.4961 181.807 17.957 182.033 18.2773C182.26 18.5938 182.584 18.752 183.006 18.752C183.416 18.752 183.736 18.5957 183.967 18.2832C184.197 17.9668 184.312 17.4629 184.312 16.7715C184.312 16.1816 184.197 15.7246 183.967 15.4004C183.736 15.0762 183.412 14.9141 182.994 14.9141C182.58 14.9141 182.26 15.0762 182.033 15.4004C181.807 15.7207 181.693 16.2188 181.693 16.8945ZM187.16 20V13.6602H189.809C190.672 13.6602 191.334 13.8125 191.795 14.1172C192.256 14.4219 192.486 14.8594 192.486 15.4297C192.486 15.7227 192.389 15.9863 192.193 16.2207C192.002 16.4512 191.721 16.6289 191.35 16.7539C191.803 16.8398 192.158 17.0098 192.416 17.2637C192.678 17.5137 192.809 17.8223 192.809 18.1895C192.809 18.7793 192.586 19.2285 192.141 19.5371C191.699 19.8457 191.057 20 190.213 20H187.16ZM188.854 17.3691V18.6465H190.219C190.816 18.6465 191.115 18.4375 191.115 18.0195C191.115 17.5938 190.83 17.377 190.26 17.3691H188.854ZM188.854 16.2324H189.902C190.496 16.2246 190.793 16.0332 190.793 15.6582C190.793 15.4277 190.711 15.2637 190.547 15.166C190.387 15.0684 190.141 15.0195 189.809 15.0195H188.854V16.2324Z" fill="#70C05B"/>
</svg>
