<?xml version="1.0" standalone="no"?>
<!DOCTYPE svg PUBLIC "-//W3C//DTD SVG 20010904//EN"
 "http://www.w3.org/TR/2001/REC-SVG-20010904/DTD/svg10.dtd">
<svg version="1.0" xmlns="http://www.w3.org/2000/svg"
 width="25pt" height="25pt" viewBox="0 0 640.000000 640.000000"
 preserveAspectRatio="xMidYMid meet">

<g transform="translate(0.000000,640.000000) scale(0.100000,-0.100000)"
fill="red" stroke="none">
<path d="M1664 5800 c-515 -54 -943 -348 -1165 -799 -52 -107 -89 -212 -120
-346 -17 -72 -22 -135 -26 -310 -13 -585 105 -1021 390 -1433 197 -285 476
-564 1132 -1132 534 -463 858 -751 1148 -1022 93 -87 173 -158 177 -158 4 0
84 71 177 158 295 276 555 507 1068 952 598 519 877 782 1058 1000 399 479
559 961 544 1635 -5 238 -21 337 -82 505 -129 356 -387 644 -720 805 -323 156
-684 193 -1029 106 -381 -97 -725 -349 -958 -703 -28 -43 -54 -78 -58 -78 -4
0 -29 35 -57 78 -338 516 -908 802 -1479 742z"/>
</g>
</svg>
