<svg width="24" height="24" viewBox="0 0 24 24" fill="none" xmlns="http://www.w3.org/2000/svg">
<path fill-rule="evenodd" clip-rule="evenodd" d="M15.2778 3.38412C13.2821 2.21806 10.8173 2.1995 8.80431 3.33537C8.56381 3.47108 8.25884 3.38613 8.12313 3.14563C7.98743 2.90513 8.07238 2.60016 8.31288 2.46445C10.6356 1.15383 13.4796 1.17525 15.7823 2.5207C18.085 3.86615 19.5 6.33321 19.4986 9.00017L18.9986 8.99991H19.4986V9.00017V12.9999C19.4986 13.2761 19.2747 13.4999 18.9986 13.4999C18.7225 13.4999 18.4986 13.2761 18.4986 12.9999V8.99991L18.4986 8.99966C18.4998 6.68829 17.2734 4.55017 15.2778 3.38412ZM6.00937 5.33563C6.25474 5.46231 6.35096 5.76391 6.22429 6.00928C5.74707 6.93363 5.49869 7.95902 5.5 8.99928L5.5 8.99991L5.5 13.9999C5.5 14.9793 5.09777 15.8647 4.44949 16.4999H17C17.2761 16.4999 17.5 16.7238 17.5 16.9999C17.5 17.2761 17.2761 17.4999 17 17.4999H2C1.72386 17.4999 1.5 17.2761 1.5 16.9999C1.5 16.7238 1.72386 16.4999 2 16.4999C3.38071 16.4999 4.5 15.3806 4.5 13.9999V9.00016M10.0191 20.5674C10.258 20.4289 10.5639 20.5102 10.7025 20.749C10.9708 21.2116 11.4652 21.4964 12 21.4964C12.5348 21.4964 13.0292 21.2116 13.2975 20.749C13.4361 20.5102 13.742 20.4289 13.9809 20.5674C14.2197 20.706 14.3011 21.0119 14.1625 21.2508C13.7153 22.0218 12.8913 22.4964 12 22.4964C11.1087 22.4964 10.2847 22.0218 9.8375 21.2508C9.69894 21.0119 9.78025 20.706 10.0191 20.5674Z" fill="#414141"/>
<path fill-rule="evenodd" clip-rule="evenodd" d="M0.646447 0.646447C0.841709 0.451184 1.15829 0.451184 1.35355 0.646447L23.3536 22.6464C23.5488 22.8417 23.5488 23.1583 23.3536 23.3536C23.1583 23.5488 22.8417 23.5488 22.6464 23.3536L0.646447 1.35355C0.451184 1.15829 0.451184 0.841709 0.646447 0.646447Z" fill="#414141"/>
</svg>
